<svg width="33" height="33" viewBox="0 0 33 33" fill="none" xmlns="http://www.w3.org/2000/svg">
<g id="document / 24 / Outline">
<path id="Vector" d="M12.5426 13.8855H13.876C14.2296 13.8855 14.5687 13.7448 14.8188 13.4944C15.0688 13.244 15.2093 12.9043 15.2093 12.5502C15.2093 12.1961 15.0688 11.8564 14.8188 11.606C14.5687 11.3556 14.2296 11.2149 13.876 11.2149H12.5426C12.189 11.2149 11.8499 11.3556 11.5998 11.606C11.3498 11.8564 11.2093 12.1961 11.2093 12.5502C11.2093 12.9043 11.3498 13.244 11.5998 13.4944C11.8499 13.7448 12.189 13.8855 12.5426 13.8855ZM12.5426 16.5561C12.189 16.5561 11.8499 16.6968 11.5998 16.9472C11.3498 17.1976 11.2093 17.5372 11.2093 17.8914C11.2093 18.2455 11.3498 18.5852 11.5998 18.8356C11.8499 19.086 12.189 19.2267 12.5426 19.2267H20.5426C20.8963 19.2267 21.2354 19.086 21.4855 18.8356C21.7355 18.5852 21.876 18.2455 21.876 17.8914C21.876 17.5372 21.7355 17.1976 21.4855 16.9472C21.2354 16.6968 20.8963 16.5561 20.5426 16.5561H12.5426ZM27.2093 12.4701C27.1954 12.3474 27.1686 12.2266 27.1293 12.1096V11.9894C27.0652 11.8521 26.9797 11.7259 26.876 11.6155L18.876 3.60371C18.7658 3.49985 18.6397 3.41421 18.5026 3.35001C18.4628 3.34435 18.4224 3.34435 18.3826 3.35001C18.2472 3.27221 18.0976 3.22228 17.9426 3.20312H9.87598C8.81511 3.20313 7.79769 3.62517 7.04755 4.37642C6.2974 5.12767 5.87598 6.14659 5.87598 7.20902V25.9032C5.87598 26.9656 6.2974 27.9845 7.04755 28.7358C7.79769 29.487 8.81511 29.9091 9.87598 29.9091H23.2093C24.2702 29.9091 25.2876 29.487 26.0377 28.7358C26.7879 27.9845 27.2093 26.9656 27.2093 25.9032V12.5502C27.2093 12.5502 27.2093 12.5502 27.2093 12.4701ZM19.2093 7.75649L22.6626 11.2149H20.5426C20.189 11.2149 19.8499 11.0742 19.5998 10.8238C19.3498 10.5734 19.2093 10.2338 19.2093 9.87961V7.75649ZM24.5426 25.9032C24.5426 26.2573 24.4022 26.597 24.1521 26.8474C23.9021 27.0978 23.5629 27.2385 23.2093 27.2385H9.87598C9.52235 27.2385 9.18322 27.0978 8.93317 26.8474C8.68312 26.597 8.54264 26.2573 8.54264 25.9032V7.20902C8.54264 6.85487 8.68312 6.51524 8.93317 6.26482C9.18322 6.0144 9.52235 5.87372 9.87598 5.87372H16.5426V9.87961C16.5426 10.942 16.9641 11.961 17.7142 12.7122C18.4644 13.4635 19.4818 13.8855 20.5426 13.8855H24.5426V25.9032ZM20.5426 21.8973H12.5426C12.189 21.8973 11.8499 22.038 11.5998 22.2884C11.3498 22.5388 11.2093 22.8784 11.2093 23.2326C11.2093 23.5867 11.3498 23.9264 11.5998 24.1768C11.8499 24.4272 12.189 24.5679 12.5426 24.5679H20.5426C20.8963 24.5679 21.2354 24.4272 21.4855 24.1768C21.7355 23.9264 21.876 23.5867 21.876 23.2326C21.876 22.8784 21.7355 22.5388 21.4855 22.2884C21.2354 22.038 20.8963 21.8973 20.5426 21.8973Z" fill="#7291FF"/>
</g>
</svg>
