<svg width="33" height="33" viewBox="0 0 33 33" fill="none" xmlns="http://www.w3.org/2000/svg">
<g id="Repair Tool / 24 / Outline">
<path id="Vector" d="M29.5752 21.3364L23.5485 15.3142C23.6746 14.6991 23.7372 14.0727 23.7352 13.4448C23.7347 11.7231 23.3009 10.0293 22.4738 8.52004C21.6467 7.01074 20.453 5.73461 19.0031 4.8096C17.5531 3.88459 15.8938 3.34056 14.1783 3.2278C12.4629 3.11504 10.7467 3.43719 9.18852 4.16446C8.9911 4.25478 8.81868 4.39199 8.68624 4.56419C8.55379 4.73639 8.46533 4.93837 8.42852 5.15258C8.39185 5.36407 8.40664 5.5813 8.47163 5.78585C8.53662 5.99041 8.6499 6.17625 8.80185 6.32764L14.6019 12.1228L12.2019 14.5264L6.41518 8.71782C6.26274 8.56801 6.07659 8.45706 5.8724 8.39432C5.66821 8.33158 5.45196 8.31888 5.24185 8.35729C5.02929 8.39281 4.8285 8.47938 4.65666 8.60961C4.48482 8.73984 4.34707 8.90985 4.25518 9.10506C3.52655 10.6707 3.20516 12.3955 3.32091 14.1189C3.43665 15.8424 3.98578 17.5085 4.9172 18.9623C5.84862 20.4162 7.13208 21.6104 8.64818 22.4341C10.1643 23.2577 11.8638 23.684 13.5885 23.6731C14.2155 23.6752 14.841 23.6125 15.4552 23.4862L21.4685 29.5217C21.5925 29.6469 21.7399 29.7462 21.9024 29.814C22.0649 29.8818 22.2392 29.9167 22.4152 29.9167C22.5912 29.9167 22.7655 29.8818 22.928 29.814C23.0904 29.7462 23.2379 29.6469 23.3619 29.5217C23.4868 29.3976 23.586 29.2499 23.6537 29.0872C23.7214 28.9245 23.7563 28.75 23.7563 28.5737C23.7563 28.3974 23.7214 28.2229 23.6537 28.0602C23.586 27.8974 23.4868 27.7498 23.3619 27.6256L16.8285 21.0827C16.6653 20.9203 16.4628 20.8029 16.2408 20.7421C16.0189 20.6812 15.785 20.679 15.5619 20.7355C14.9181 20.9082 14.255 20.9979 13.5885 21.0026C12.5913 21.0114 11.6021 20.8225 10.678 20.4468C9.75398 20.0711 8.91328 19.516 8.20437 18.8135C7.49546 18.111 6.93235 17.2749 6.54748 16.3535C6.1626 15.4321 5.96357 14.4435 5.96185 13.4448C5.96012 12.9975 5.9958 12.5508 6.06852 12.1095L11.2952 17.3572C11.4191 17.4824 11.5666 17.5817 11.7291 17.6495C11.8916 17.7173 12.0658 17.7522 12.2419 17.7522C12.4179 17.7522 12.5921 17.7173 12.7546 17.6495C12.9171 17.5817 13.0646 17.4824 13.1885 17.3572L17.4285 13.0709C17.6688 12.8219 17.8032 12.4892 17.8032 12.1429C17.8032 11.7966 17.6688 11.4638 17.4285 11.2148L12.2419 5.98046C12.6826 5.90837 13.1286 5.87265 13.5752 5.87364C15.5779 5.87718 17.4974 6.67641 18.9123 8.09589C20.3272 9.51537 21.1219 11.4391 21.1219 13.4448C21.1172 14.1122 21.0276 14.7763 20.8552 15.421C20.7987 15.6444 20.801 15.8787 20.8618 16.101C20.9225 16.3233 21.0397 16.526 21.2019 16.6895L27.7352 23.2325C27.9863 23.4839 28.3268 23.6252 28.6819 23.6252C29.0369 23.6252 29.3774 23.4839 29.6285 23.2325C29.8796 22.9811 30.0206 22.64 30.0206 22.2844C30.0206 21.9289 29.8796 21.5878 29.6285 21.3364H29.5752Z" fill="#A276FF"/>
</g>
</svg>
