<svg width="105" height="26" viewBox="0 0 105 26" fill="none" xmlns="http://www.w3.org/2000/svg">
<g id="cc-logo" clip-path="url(#clip0_109_3520)">
<path id="Vector" fill-rule="evenodd" clip-rule="evenodd" d="M32.6672 17.5016C31.7109 15.7744 30.0824 15.0835 28.1871 15.0835C25.4325 15.0835 23.2393 17.0284 23.2393 20.317C23.2393 23.6609 25.3182 25.5471 28.2807 25.5471C29.1899 25.5461 30.0821 25.3012 30.8636 24.8381C31.6452 24.3749 32.2873 23.7106 32.7227 22.9148L30.6437 21.8508C30.1725 22.9701 29.4622 23.3051 28.5648 23.3051C27.0091 23.3051 26.2988 22.0166 26.2988 20.317C26.2988 18.6174 26.8982 17.3289 28.5648 17.3289C28.9753 17.3524 29.3704 17.4932 29.7028 17.7346C30.0352 17.9759 30.2909 18.3076 30.4393 18.69L32.6672 17.5016Z" fill="#7C7D82"/>
<path id="Vector_2" fill-rule="evenodd" clip-rule="evenodd" d="M38.0274 17.3152C39.694 17.3152 40.4078 18.6037 40.4078 20.1928C40.4078 22.0029 39.694 23.3018 38.0274 23.3018C36.3608 23.3018 35.647 22.0133 35.647 20.3137C35.647 18.6141 36.3573 17.3152 38.0274 17.3152ZM38.0274 15.0698C34.909 15.0698 32.7227 16.9594 32.7227 20.3033C32.7227 23.6473 34.9159 25.5334 38.0274 25.5334C41.1389 25.5334 43.3287 23.6473 43.3287 20.3033C43.3287 16.9594 41.1389 15.0698 38.0274 15.0698Z" fill="#7C7D82"/>
<path id="Vector_3" fill-rule="evenodd" clip-rule="evenodd" d="M43.9277 25.2741H46.8521V19.0872C46.8521 18.1925 47.2263 17.4256 48.4078 17.4256C49.5339 17.4256 49.8319 18.0785 49.8319 19.0526V25.2707H52.7563V19.1632C52.7563 18.1545 53.2621 17.4359 54.2358 17.4359C55.3411 17.4359 55.7361 18.0716 55.7361 19.4741V25.2741H58.6604V17.6743C58.6604 15.3944 56.5607 15.0558 55.5871 15.0558C54.9896 15.0415 54.3957 15.1522 53.8436 15.3806C53.2916 15.6091 52.7937 15.9503 52.3821 16.3823C52.0876 15.9586 51.6914 15.6152 51.2296 15.3835C50.7678 15.1518 50.2551 15.0391 49.7384 15.0558C48.8375 15.0558 47.6005 15.3184 46.8521 16.1958V15.3322H43.9277V25.2741Z" fill="#7C7D82"/>
<path id="Vector_4" fill-rule="evenodd" clip-rule="evenodd" d="M59.5967 25.2742H62.5176V19.0872C62.5176 18.1925 62.8953 17.4256 64.0733 17.4256C65.2514 17.4256 65.487 18.0785 65.487 19.0527V25.2707H68.4114V19.1632C68.4114 18.1545 68.9172 17.436 69.8943 17.436C70.9996 17.436 71.3912 18.0716 71.3912 19.4741V25.2742H74.3155V17.6744C74.3155 15.3944 72.2158 15.0559 71.2422 15.0559C70.6447 15.0418 70.0508 15.1525 69.4989 15.381C68.9469 15.6094 68.449 15.9506 68.0371 16.3824C67.743 15.9585 67.3468 15.6149 66.8849 15.3831C66.423 15.1514 65.9102 15.0389 65.3934 15.0559C64.496 15.0559 63.2591 15.3184 62.5072 16.1959V15.3322H59.5967V25.2742Z" fill="#7C7D82"/>
<path id="Vector_5" fill-rule="evenodd" clip-rule="evenodd" d="M80.2261 17.3152C81.8962 17.3152 82.6065 18.6037 82.6065 20.1928C82.6065 22.0029 81.9135 23.3018 80.2261 23.3018C78.5387 23.3018 77.8457 22.0133 77.8457 20.3137C77.8457 18.6141 78.5595 17.3152 80.2261 17.3152ZM80.2261 15.0698C77.1077 15.0698 74.9248 16.9594 74.9248 20.3033C74.9248 23.6473 77.1146 25.5334 80.2261 25.5334C83.3376 25.5334 85.5308 23.6473 85.5308 20.3033C85.5308 16.9594 83.3376 15.0698 80.2261 15.0698Z" fill="#7C7D82"/>
<path id="Vector_6" fill-rule="evenodd" clip-rule="evenodd" d="M86.3174 25.2743H89.2418V19.0874C89.2418 18.1927 89.616 17.4258 90.7975 17.4258C91.9201 17.4258 92.2216 18.0787 92.2216 19.0528V25.2709H95.1459V17.9301C95.1459 16.4343 94.4876 15.0698 92.128 15.0698C91.2271 15.0698 89.9902 15.3324 89.2418 16.2098V15.3324H86.3174V25.2743Z" fill="#7C7D82"/>
<path id="Vector_7" fill-rule="evenodd" clip-rule="evenodd" d="M104.906 16.5103C103.613 15.6071 102.081 15.1058 100.502 15.0698C98.479 15.0698 96.2857 16.044 96.2857 18.5485C96.2857 22.0789 102.176 20.8457 102.176 22.3968C102.176 23.2915 101.071 23.4055 100.582 23.4055C99.2517 23.4055 98.3335 22.8631 97.4361 22.0029L95.6309 23.5747C97.093 24.9185 98.33 25.5334 100.502 25.5334C102.675 25.5334 105.007 24.6007 105.007 21.9857C105.007 18.2652 99.1165 19.6677 99.1165 17.9681C99.1165 17.4638 99.6397 17.2012 100.371 17.2012C101.289 17.2012 102.543 17.5743 103.125 18.2652L104.906 16.5103Z" fill="#7C7D82"/>
<path id="Vector_8" fill-rule="evenodd" clip-rule="evenodd" d="M32.6672 6.06022C31.7109 4.33298 30.0824 3.64209 28.1871 3.64209C25.4325 3.64209 23.2393 5.57659 23.2393 8.86525C23.2393 12.2126 25.3182 14.0988 28.2807 14.0988C29.1902 14.0971 30.0824 13.8515 30.864 13.3878C31.6455 12.9241 32.2875 12.2592 32.7227 11.463L30.6437 10.399C30.1725 11.5217 29.4622 11.8568 28.5648 11.8568C27.0091 11.8568 26.2988 10.5683 26.2988 8.86525C26.2988 7.16219 26.8982 5.87713 28.5648 5.87713C28.9779 5.90187 29.3748 6.0456 29.7076 6.29087C30.0403 6.53615 30.2945 6.87243 30.4393 7.25892L32.6672 6.06022Z" fill="#7C7D82"/>
<path id="Vector_9" fill-rule="evenodd" clip-rule="evenodd" d="M33.3809 13.8364H36.3052V8.08123C36.3052 6.97925 36.9982 6.68217 38.7306 6.4749L39.0494 6.4369V3.85986C38.0486 3.90119 37.0882 4.2648 36.3122 4.8962V3.89786H33.3809V13.8364Z" fill="#7C7D82"/>
<path id="Vector_10" fill-rule="evenodd" clip-rule="evenodd" d="M48.9899 9.46287C48.9691 6.40567 47.7322 3.64209 44.0975 3.64209C41.0623 3.64209 39.2051 5.6595 39.2051 9.16924C39.2051 11.9708 41.0034 14.1022 44.0975 14.1022C46.3289 14.1022 47.9089 13.2248 48.9483 11.3386L46.7377 10.2056C45.8958 11.4008 45.3899 11.9605 44.3123 11.9605C43.3768 11.9605 42.1572 11.3628 42.1398 9.45596L48.9899 9.46287ZM42.0913 7.67C42.1185 7.16089 42.3387 6.68109 42.7073 6.3277C43.0759 5.97432 43.5654 5.77375 44.0767 5.76659C44.3363 5.74987 44.5966 5.78691 44.8411 5.87537C45.0856 5.96383 45.3092 6.1018 45.4976 6.28059C45.686 6.45938 45.8353 6.67512 45.936 6.91424C46.0368 7.15336 46.0868 7.41068 46.0829 7.67H42.0913Z" fill="#7C7D82"/>
<path id="Vector_11" fill-rule="evenodd" clip-rule="evenodd" d="M55.6948 9.68741C55.6948 11.2039 54.832 11.9674 53.6886 11.9674C52.9956 11.9674 52.3234 11.6219 52.3234 10.8481C52.3234 10.0743 52.9956 9.76341 53.7267 9.5596L55.6948 8.99652V9.68741ZM58.5083 6.51275C58.4875 4.2708 56.7828 3.64209 54.0524 3.64209C52.7011 3.64209 50.0401 3.90463 49.9465 6.75111H52.7566C52.909 5.76313 53.356 5.4246 54.295 5.4246C55.0815 5.4246 55.6809 5.74241 55.6809 6.48857V7.31074L54.6137 7.46273C51.426 7.91181 49.4961 8.75125 49.4961 11.1417C49.4961 13.0486 50.9202 14.0953 52.8328 14.0953C53.8722 14.0953 55.3448 13.591 55.8299 12.8068H55.868C55.8857 13.1588 55.9485 13.5071 56.0551 13.8431H58.7543C58.5441 13.1733 58.4561 12.4713 58.4944 11.7705L58.5083 6.51275Z" fill="#7C7D82"/>
<path id="Vector_12" fill-rule="evenodd" clip-rule="evenodd" d="M65.3826 4.08442H63.6502V1.22412H60.7258V4.10169H59.3018V5.89456H60.7258V11.1108C60.7258 12.5479 61.0723 14.0989 63.574 14.0989C64.2115 14.0989 65.0743 14.0229 65.4485 13.9849V11.6877C65.1563 11.7221 64.8625 11.7405 64.5684 11.743C64.0417 11.743 63.6502 11.5392 63.6502 10.755V5.87729H65.3826V4.08442Z" fill="#7C7D82"/>
<path id="Vector_13" fill-rule="evenodd" clip-rule="evenodd" d="M66.4844 3.89786V13.8364H69.4053V3.89786H66.4844ZM69.4053 2.77515V0.533203H66.4844V2.77515H69.4053Z" fill="#7C7D82"/>
<path id="Vector_14" fill-rule="evenodd" clip-rule="evenodd" d="M73.3416 13.8365H76.2833L79.6962 3.89795H76.5847L74.8592 10.9209H74.8211L73.0991 3.89795H69.9668L73.3416 13.8365Z" fill="#7C7D82"/>
<path id="Vector_15" fill-rule="evenodd" clip-rule="evenodd" d="M89.1375 9.46287C89.1167 6.40567 87.8797 3.64209 84.2451 3.64209C81.2098 3.64209 79.3457 5.65259 79.3457 9.16924C79.3457 11.9708 81.144 14.1022 84.2381 14.1022C86.4695 14.1022 88.0495 13.2248 89.0716 11.3386L86.8888 10.2056C86.0433 11.4008 85.5375 11.9605 84.4633 11.9605C83.5278 11.9605 82.3082 11.3628 82.2909 9.45596L89.1375 9.46287ZM82.2389 7.67C82.2661 7.16089 82.4862 6.68109 82.8548 6.3277C83.2235 5.97432 83.7129 5.77375 84.2243 5.76659C84.4825 5.75234 84.7408 5.79122 84.9833 5.88079C85.2258 5.97036 85.4472 6.10872 85.6337 6.28725C85.8203 6.46578 85.968 6.68067 86.0676 6.91855C86.1673 7.15644 86.2168 7.41222 86.2131 7.67H82.2389Z" fill="#7C7D82"/>
<path id="Vector_16" fill-rule="evenodd" clip-rule="evenodd" d="M10.9492 3.46968C9.51669 3.45073 8.09536 3.72274 6.77174 4.26912C5.44812 4.81551 4.24994 5.62483 3.25017 6.64779C1.178 8.70646 0.00921551 11.5004 0.000101438 14.4169C-0.00613709 15.8506 0.27544 17.2711 0.828251 18.5947C1.38106 19.9183 2.19393 21.1182 3.21898 22.1238C4.22812 23.147 5.43116 23.9601 6.7582 24.5158C8.08525 25.0714 9.50982 25.3586 10.9492 25.3607C13.897 25.3503 16.7204 24.1751 18.8006 22.0927C19.8136 21.0898 20.6122 19.8925 21.1482 18.5732C21.6842 17.2539 21.9464 15.84 21.919 14.4169C21.9319 12.9766 21.6571 11.5481 21.1105 10.2148C20.5639 8.88146 19.7565 7.66998 18.7354 6.651C17.7144 5.63201 16.5 4.82592 15.1632 4.27972C13.8263 3.73352 12.3938 3.45815 10.9492 3.46968ZM10.9803 5.44909C12.1624 5.44493 13.3336 5.67474 14.4259 6.12519C15.5183 6.57565 16.5101 7.23779 17.3439 8.07323C18.1776 8.90867 18.8368 9.90081 19.2831 10.9921C19.7295 12.0834 19.9541 13.2522 19.944 14.4307C19.9678 15.5937 19.7532 16.7493 19.3136 17.8268C18.8739 18.9043 18.2183 19.881 17.3869 20.6971C15.6884 22.395 13.3856 23.3548 10.9803 23.3674C9.80443 23.3678 8.64024 23.1346 7.55573 22.6815C6.47122 22.2283 5.48812 21.5643 4.66384 20.7282C3.82178 19.9044 3.15159 18.9227 2.69191 17.8395C2.23222 16.7563 1.99213 15.593 1.98548 14.4169C2.00091 12.0276 2.96375 9.74132 4.66384 8.05721C5.48266 7.21601 6.46541 6.5507 7.55167 6.10217C8.63793 5.65365 9.80473 5.4314 10.9803 5.44909Z" fill="#7C7D82"/>
<path id="Vector_17" fill-rule="evenodd" clip-rule="evenodd" d="M10.8377 12.5962C10.2175 11.4701 9.16074 11.021 7.9307 11.021C6.14282 11.021 4.71875 12.2819 4.71875 14.4167C4.71875 16.5516 6.05966 17.8056 7.99307 17.8056C8.58321 17.8044 9.16217 17.645 9.66933 17.3442C10.1765 17.0433 10.5932 16.6121 10.8759 16.0956L9.51069 15.4047C9.426 15.6909 9.24676 15.9401 9.00208 16.112C8.7574 16.2838 8.46165 16.3681 8.16285 16.3512C7.1511 16.3512 6.69027 15.5153 6.69027 14.4133C6.69027 13.3113 7.07834 12.4719 8.16285 12.4719C8.42947 12.4868 8.6861 12.5782 8.90185 12.7351C9.11761 12.892 9.28331 13.1077 9.37903 13.3562L10.8377 12.5962Z" fill="#7C7D82"/>
<path id="Vector_18" fill-rule="evenodd" clip-rule="evenodd" d="M17.1717 12.5962C16.5515 11.4701 15.4947 11.021 14.2647 11.021C12.4733 11.021 11.0527 12.2784 11.0527 14.4167C11.0527 16.5551 12.3936 17.8056 14.3271 17.8056C14.9172 17.8044 15.4961 17.645 16.0033 17.3442C16.5105 17.0433 16.9272 16.6121 17.2098 16.0956L15.8481 15.4047C15.7622 15.6909 15.5822 15.9398 15.3371 16.1115C15.0919 16.2832 14.796 16.3677 14.4968 16.3512C13.4886 16.3512 13.0243 15.5153 13.0243 14.4133C13.0243 13.3113 13.4123 12.4719 14.4968 12.4719C14.7635 12.4868 15.0201 12.5782 15.2358 12.7351C15.4516 12.892 15.6173 13.1077 15.713 13.3562L17.1717 12.5962Z" fill="#7C7D82"/>
</g>
<defs>
<clipPath id="clip0_109_3520">
<rect width="105" height="25" fill="white" transform="translate(0 0.533203)"/>
</clipPath>
</defs>
</svg>
