<svg width="34" height="38" viewBox="0 0 34 38" fill="none" xmlns="http://www.w3.org/2000/svg">
<g id="Logomark">
<path id="Intersect" d="M28.7925 19.0413C25.8244 22.3575 21.511 24.4446 16.7102 24.4446C11.9094 24.4446 7.59606 22.3575 4.62793 19.0413C7.59606 15.725 11.9094 13.638 16.7102 13.638C21.511 13.638 25.8244 15.725 28.7925 19.0413Z" fill="white"/>
<path id="Shape" fill-rule="evenodd" clip-rule="evenodd" d="M0.5 29.8478C0.5 20.8954 7.75738 13.638 16.7098 13.638C11.909 13.638 7.59569 15.725 4.62756 19.0413C7.59569 22.3575 11.909 24.4446 16.7098 24.4446C21.5106 24.4446 25.824 22.3575 28.7921 19.0413C31.3589 21.9091 32.9196 25.6962 32.9196 29.8478V35.9715C32.9196 36.7673 32.2745 37.4124 31.4788 37.4124H1.94087C1.1451 37.4124 0.5 36.7673 0.5 35.9715V29.8478ZM28.7921 19.0413C28.7921 19.0413 28.7921 19.0413 28.7921 19.0413V19.0413Z" fill="#7CD4FD"/>
<path id="Shape_2" fill-rule="evenodd" clip-rule="evenodd" d="M10.6297 23.2656C8.31516 22.3285 6.26632 20.8722 4.62756 19.0412C7.59568 15.725 11.909 13.638 16.7098 13.638C21.5106 13.638 25.824 15.725 28.7921 19.0412C28.7921 19.0412 28.7921 19.0412 28.7921 19.0412C31.3589 16.1734 32.9196 12.3863 32.9196 8.23468V2.11098C32.9196 1.31521 32.2745 0.670108 31.4788 0.670108L1.94087 0.670105C1.1451 0.670105 0.500001 1.31521 0.500001 2.11098L0.5 8.23468C0.499999 15.0369 4.68991 20.8606 10.6297 23.2656Z" fill="#0BA5EC"/>
</g>
</svg>
