<svg width="44" height="44" viewBox="0 0 44 44" fill="none" xmlns="http://www.w3.org/2000/svg">
<g id="Logomark">
<path id="Exclude" opacity="0.8" d="M22 0C9.84969 0 0 9.84974 0 22C0 34.1503 9.84969 44 22 44C32.901 44 41.9502 36.0716 43.6958 25.6667H43.5379C41.9098 31.9925 36.1674 36.6667 29.3333 36.6667C21.2332 36.6667 14.6667 30.1002 14.6667 22C14.6667 13.8998 21.2332 7.33333 29.3333 7.33333C36.1674 7.33333 41.9098 12.0075 43.5379 18.3333H43.6958C41.9502 7.92838 32.901 0 22 0Z" fill="white"/>
<path id="Exclude_2" d="M0 22C0 9.84974 9.84974 0 22 0C32.901 0 41.9502 7.92838 43.6958 18.3333H28.8713C27.2431 12.0075 21.5007 7.33333 14.6667 7.33333C6.56649 7.33333 0 13.8998 0 22Z" fill="white"/>
<path id="Exclude_3" d="M0 22C0 34.1503 9.84974 44 22 44C32.901 44 41.9502 36.0716 43.6958 25.6667H28.8713C27.2431 31.9925 21.5007 36.6667 14.6667 36.6667C6.56649 36.6667 0 30.1002 0 22Z" fill="white"/>
</g>
</svg>
