<svg width="103" height="28" viewBox="0 0 103 28" fill="none" xmlns="http://www.w3.org/2000/svg">
<g id="Logotype">
<path d="M18.4386 7.50706C17.8122 2.98291 14.3321 0.35791 9.81791 0.35791C4.49831 0.35791 0.491211 4.23575 0.491211 10.8181C0.491211 17.3906 4.4486 21.2784 9.81791 21.2784C14.6602 21.2784 17.8719 18.1463 18.4386 14.2585L14.7199 14.2386C14.2526 16.625 12.3037 17.9673 9.86763 17.9673C6.56649 17.9673 4.20002 15.4914 4.20002 10.8181C4.20002 6.22439 6.54661 3.66899 9.87757 3.66899C12.3534 3.66899 14.2923 5.07098 14.7199 7.50706H18.4386Z" fill="white"/>
<path d="M26.0526 21.3082C28.4489 21.3082 29.8808 20.1846 30.537 18.9019H30.6563V21H34.1166V10.7784C34.1166 6.74143 30.8254 5.52837 27.912 5.52837C24.7004 5.52837 22.2345 6.96018 21.439 9.74428L24.7998 10.2215C25.1578 9.17751 26.172 8.28263 27.9319 8.28263C29.6024 8.28263 30.5171 9.13774 30.5171 10.6392V10.6988C30.5171 11.7329 29.4333 11.7826 26.7387 12.071C23.7757 12.3892 20.9418 13.2741 20.9418 16.7144C20.9418 19.7173 23.1393 21.3082 26.0526 21.3082ZM26.9873 18.6633C25.4859 18.6633 24.412 17.9772 24.412 16.6548C24.412 15.2727 25.6151 14.696 27.2259 14.4673C28.1705 14.338 30.0597 14.0994 30.5271 13.7215V15.5213C30.5271 17.2215 29.1549 18.6633 26.9873 18.6633Z" fill="white"/>
<path d="M45.3623 5.72723H42.3495V2.06814H38.7501V5.72723H36.5825V8.51132H38.7501V17.0028C38.7302 19.8764 40.8183 21.2883 43.5228 21.2088C44.547 21.1789 45.2529 20.9801 45.6407 20.8508L45.0342 18.0369C44.8353 18.0866 44.4276 18.1761 43.9802 18.1761C43.0754 18.1761 42.3495 17.8579 42.3495 16.4062V8.51132H45.3623V5.72723Z" fill="white"/>
<path d="M52.7675 21.3082C55.1638 21.3082 56.5956 20.1846 57.2519 18.9019H57.3712V21H60.8314V10.7784C60.8314 6.74143 57.5402 5.52837 54.6269 5.52837C51.4152 5.52837 48.9493 6.96018 48.1538 9.74428L51.5146 10.2215C51.8726 9.17751 52.8868 8.28263 54.6467 8.28263C56.3172 8.28263 57.232 9.13774 57.232 10.6392V10.6988C57.232 11.7329 56.1482 11.7826 53.4536 12.071C50.4905 12.3892 47.6567 13.2741 47.6567 16.7144C47.6567 19.7173 49.8541 21.3082 52.7675 21.3082ZM53.7021 18.6633C52.2007 18.6633 51.1269 17.9772 51.1269 16.6548C51.1269 15.2727 52.33 14.696 53.9408 14.4673C54.8854 14.338 56.7746 14.0994 57.2419 13.7215V15.5213C57.2419 17.2215 55.8697 18.6633 53.7021 18.6633Z" fill="white"/>
<path d="M68.0501 0.636319H64.4507V21H68.0501V0.636319Z" fill="white"/>
<path d="M78.4134 21.2983C82.8878 21.2983 85.7316 18.1463 85.7316 13.4233C85.7316 8.6903 82.8878 5.52837 78.4134 5.52837C73.939 5.52837 71.0952 8.6903 71.0952 13.4233C71.0952 18.1463 73.939 21.2983 78.4134 21.2983ZM78.4333 18.4147C75.9575 18.4147 74.7444 16.2073 74.7444 13.4133C74.7444 10.6193 75.9575 8.38206 78.4333 8.38206C80.8694 8.38206 82.0825 10.6193 82.0825 13.4133C82.0825 16.2073 80.8694 18.4147 78.4333 18.4147Z" fill="white"/>
<path d="M95.4287 27.0454C99.5551 27.0454 102.598 25.1562 102.598 21.2485V5.72723H99.048V8.2528H98.8491C98.3023 7.1491 97.1588 5.52837 94.4642 5.52837C90.9344 5.52837 88.1602 8.29257 88.1602 13.3139C88.1602 18.2954 90.9344 20.7812 94.4542 20.7812C97.0693 20.7812 98.2923 19.3792 98.8491 18.2556H99.0281V21.1491C99.0281 23.3963 97.5366 24.321 95.4883 24.321C93.3207 24.321 92.3662 23.2968 91.9287 22.4019L88.6872 23.1875C89.3435 25.3252 91.5409 27.0454 95.4287 27.0454ZM95.4585 17.9573C93.0821 17.9573 91.8292 16.1079 91.8292 13.294C91.8292 10.5198 93.0622 8.48149 95.4585 8.48149C97.7753 8.48149 99.048 10.4005 99.048 13.294C99.048 16.2073 97.7554 17.9573 95.4585 17.9573Z" fill="white"/>
</g>
</svg>
