<svg width="37" height="38" viewBox="0 0 37 38" fill="none" xmlns="http://www.w3.org/2000/svg">
<g id="Logomark">
<path id="Intersect" d="M13.4663 26.8211C20.6275 26.8211 26.4328 21.0159 26.4328 13.8547C26.4328 13.0431 26.3582 12.2489 26.2155 11.4786C25.4453 11.336 24.6511 11.2614 23.8395 11.2614C16.6783 11.2614 10.873 17.0667 10.873 24.2278C10.873 25.0394 10.9476 25.8336 11.0903 26.6039C11.8606 26.7466 12.6547 26.8211 13.4663 26.8211Z" fill="#175CD3"/>
<path id="Circle" fill-rule="evenodd" clip-rule="evenodd" d="M11.0904 26.6039C5.06398 25.4879 0.5 20.2043 0.5 13.8547C0.5 6.69352 6.30527 0.888245 13.4664 0.888245C19.816 0.888245 25.0996 5.45222 26.2157 11.4786C25.4454 11.336 24.6512 11.2614 23.8396 11.2614C16.6784 11.2614 10.8732 17.0667 10.8732 24.2278C10.8732 25.0394 10.9477 25.8336 11.0904 26.6039Z" fill="#1570EF"/>
<path id="Circle_2" fill-rule="evenodd" clip-rule="evenodd" d="M13.4659 26.8211C20.6271 26.8211 26.4324 21.0158 26.4324 13.8546C26.4324 13.043 26.3578 12.2489 26.2151 11.4786C32.2415 12.5946 36.8055 17.8782 36.8055 24.2278C36.8055 31.389 31.0002 37.1942 23.8391 37.1942C17.4895 37.1942 12.2059 32.6303 11.0898 26.6039C11.8601 26.7465 12.6543 26.8211 13.4659 26.8211Z" fill="#2E90FA"/>
</g>
</svg>
