<svg width="36" height="37" viewBox="0 0 36 37" fill="none" xmlns="http://www.w3.org/2000/svg">
<g id="Social Media Icon Square/YouTube">
<g id="Group 73">
<rect id="Social Media Icon" y="0.951416" width="36" height="36" rx="18" fill="white"/>
<path id="YouTube" d="M18.4383 25.9313L14.3761 25.8554C13.0608 25.829 11.7423 25.8818 10.4528 25.6077C8.49128 25.1982 8.35232 23.1903 8.20691 21.506C8.00654 19.1382 8.08411 16.7274 8.46222 14.3793C8.67567 13.0618 9.51571 12.2756 10.8148 12.1901C15.2001 11.8796 19.6146 11.9164 23.9903 12.0612C24.4524 12.0745 24.9177 12.1471 25.3734 12.2297C27.6227 12.6326 27.6775 14.908 27.8233 16.8235C27.9688 18.7587 27.9074 20.7038 27.6294 22.6259C27.4065 24.2173 26.9798 25.5518 25.1795 25.6807C22.9237 25.8491 20.7197 25.9848 18.4576 25.9416C18.4577 25.9313 18.4447 25.9313 18.4383 25.9313ZM16.0501 21.9024C17.75 20.905 19.4175 19.9242 21.1076 18.9334C19.4046 17.936 17.7403 16.9552 16.0501 15.9645V21.9024Z" fill="#3A3D43"/>
</g>
</g>
</svg>
