<svg width="69" height="22" viewBox="0 0 69 22" fill="none" xmlns="http://www.w3.org/2000/svg">
<g id="Logotype">
<path d="M3.35859 13.8381H8.4964V15.8495H0.866211V0.654663H3.35859V13.8381Z" fill="#101828"/>
<path d="M9.74994 9.77154C9.74994 8.56179 9.99772 7.4905 10.4933 6.55768C11.0034 5.62485 11.6885 4.90338 12.5484 4.39324C13.4229 3.86853 14.3849 3.60617 15.4343 3.60617C16.3817 3.60617 17.2052 3.79565 17.9048 4.17461C18.619 4.53899 19.1875 4.99812 19.6102 5.55198V3.80294H22.1244V15.8495H19.6102V14.0567C19.1875 14.6251 18.6117 15.0988 17.883 15.4778C17.1542 15.8567 16.3234 16.0462 15.3906 16.0462C14.3557 16.0462 13.4084 15.7839 12.5484 15.2592C11.6885 14.7199 11.0034 13.9765 10.4933 13.0291C9.99772 12.0672 9.74994 10.9813 9.74994 9.77154ZM19.6102 9.81526C19.6102 8.98447 19.4353 8.26299 19.0854 7.65083C18.7502 7.03866 18.3057 6.57225 17.7518 6.2516C17.1979 5.93094 16.6004 5.77061 15.959 5.77061C15.3177 5.77061 14.7201 5.93094 14.1663 6.2516C13.6124 6.55768 13.1606 7.0168 12.8108 7.62896C12.4755 8.22655 12.3079 8.94074 12.3079 9.77154C12.3079 10.6023 12.4755 11.3311 12.8108 11.9578C13.1606 12.5846 13.6124 13.0656 14.1663 13.4008C14.7347 13.7215 15.3323 13.8818 15.959 13.8818C16.6004 13.8818 17.1979 13.7215 17.7518 13.4008C18.3057 13.0801 18.7502 12.6137 19.0854 12.0016C19.4353 11.3748 19.6102 10.6461 19.6102 9.81526Z" fill="#101828"/>
<path d="M36.2421 3.80294L28.8524 21.512H26.2726L28.7212 15.6527L23.977 3.80294H26.7536L30.1423 12.9854L33.6623 3.80294H36.2421Z" fill="#101828"/>
<path d="M49.1638 9.53105C49.1638 9.98288 49.1347 10.391 49.0764 10.7554H39.8721C39.9449 11.7173 40.302 12.4898 40.9433 13.0729C41.5847 13.6559 42.3717 13.9474 43.3045 13.9474C44.6455 13.9474 45.5929 13.3862 46.1467 12.2639H48.8359C48.4715 13.3716 47.8083 14.2826 46.8464 14.9968C45.899 15.6964 44.7184 16.0462 43.3045 16.0462C42.1531 16.0462 41.1182 15.7912 40.2 15.281C39.2963 14.7563 38.5821 14.0275 38.0574 13.0947C37.5473 12.1473 37.2922 11.0542 37.2922 9.81526C37.2922 8.57636 37.54 7.4905 38.0356 6.55768C38.5457 5.61028 39.2526 4.88151 40.1563 4.37138C41.0745 3.86124 42.1239 3.60617 43.3045 3.60617C44.4414 3.60617 45.4544 3.85395 46.3435 4.34951C47.2326 4.84507 47.9249 5.54469 48.4205 6.44836C48.9161 7.33746 49.1638 8.36502 49.1638 9.53105ZM46.5621 8.74398C46.5476 7.82573 46.2196 7.08968 45.5783 6.53581C44.937 5.98195 44.1426 5.70502 43.1952 5.70502C42.3353 5.70502 41.5992 5.98195 40.9871 6.53581C40.3749 7.0751 40.0105 7.81116 39.8939 8.74398H46.5621Z" fill="#101828"/>
<path d="M54.109 5.55198C54.4734 4.93981 54.9543 4.46612 55.5519 4.13088C56.1641 3.78107 56.8856 3.60617 57.7164 3.60617V6.186H57.0823C56.1058 6.186 55.3625 6.43379 54.8523 6.92935C54.3568 7.42491 54.109 8.28485 54.109 9.50918V15.8495H51.6166V3.80294H54.109V5.55198Z" fill="#101828"/>
<path d="M64.38 16.0462C63.4326 16.0462 62.5799 15.8786 61.822 15.5434C61.0787 15.1936 60.4884 14.7272 60.0511 14.1441C59.6138 13.5466 59.3806 12.8834 59.3515 12.1546H61.9313C61.9751 12.6647 62.2155 13.0947 62.6528 13.4445C63.1046 13.7798 63.6658 13.9474 64.3363 13.9474C65.0359 13.9474 65.5752 13.8162 65.9541 13.5538C66.3477 13.2769 66.5444 12.9271 66.5444 12.5044C66.5444 12.0526 66.3258 11.7173 65.8885 11.4987C65.4658 11.2801 64.7881 11.0396 63.8553 10.7772C62.9516 10.5295 62.2155 10.289 61.6471 10.0558C61.0787 9.82255 60.5831 9.46546 60.1604 8.98447C59.7523 8.50348 59.5483 7.86946 59.5483 7.08239C59.5483 6.44107 59.7377 5.85806 60.1167 5.33335C60.4956 4.79406 61.0349 4.37138 61.7346 4.06529C62.4487 3.75921 63.265 3.60617 64.1832 3.60617C65.5533 3.60617 66.6537 3.95598 67.4845 4.65559C68.3299 5.34064 68.7817 6.28074 68.84 7.47592H66.3476C66.3039 6.93664 66.0853 6.50666 65.6918 6.186C65.2982 5.86535 64.7662 5.70502 64.0958 5.70502C63.4399 5.70502 62.937 5.82891 62.5872 6.07669C62.2374 6.32447 62.0625 6.65242 62.0625 7.06053C62.0625 7.38118 62.1791 7.65083 62.4123 7.86946C62.6455 8.08809 62.9297 8.26299 63.265 8.39417C63.6002 8.51077 64.0958 8.66381 64.7517 8.85329C65.6262 9.0865 66.3404 9.32699 66.8942 9.57477C67.4627 9.80798 67.9509 10.1578 68.359 10.6242C68.7672 11.0906 68.9785 11.7101 68.9931 12.4826C68.9931 13.1676 68.8036 13.7798 68.4246 14.319C68.0457 14.8583 67.5064 15.281 66.8068 15.5871C66.1217 15.8932 65.3128 16.0462 64.38 16.0462Z" fill="#101828"/>
</g>
</svg>
