<svg width="119" height="24" viewBox="0 0 119 24" fill="none" xmlns="http://www.w3.org/2000/svg">
<g id="Logotype">
<path d="M14.239 1.0715V17.3918H10.9656V10.4475H3.97457V17.3918H0.701172V1.0715H3.97457V7.78198H10.9656V1.0715H14.239Z" fill="#101828"/>
<path d="M23.2127 17.6022C21.9657 17.6022 20.8434 17.3294 19.8458 16.7838C18.8482 16.2227 18.061 15.4355 17.4843 14.4223C16.9231 13.4091 16.6425 12.24 16.6425 10.9151C16.6425 9.59014 16.9309 8.42107 17.5077 7.40787C18.1 6.39468 18.9028 5.61529 19.9159 5.06973C20.9291 4.50857 22.0592 4.22799 23.3063 4.22799C24.5533 4.22799 25.6834 4.50857 26.6966 5.06973C27.7098 5.61529 28.5047 6.39468 29.0815 7.40787C29.6738 8.42107 29.97 9.59014 29.97 10.9151C29.97 12.24 29.666 13.4091 29.0581 14.4223C28.4658 15.4355 27.6552 16.2227 26.6264 16.7838C25.6132 17.3294 24.4753 17.6022 23.2127 17.6022ZM23.2127 14.7497C23.8051 14.7497 24.3584 14.6094 24.8728 14.3288C25.4028 14.0326 25.8237 13.5962 26.1354 13.0194C26.4472 12.4427 26.603 11.7412 26.603 10.9151C26.603 9.68367 26.2757 8.74062 25.621 8.08594C24.9819 7.41567 24.1947 7.08053 23.2595 7.08053C22.3242 7.08053 21.5371 7.41567 20.898 8.08594C20.2745 8.74062 19.9627 9.68367 19.9627 10.9151C19.9627 12.1465 20.2667 13.0974 20.8746 13.7676C21.4981 14.4223 22.2775 14.7497 23.2127 14.7497Z" fill="#101828"/>
<path d="M44.5996 4.43843V17.3918H41.3028V15.7551C40.882 16.3162 40.3286 16.7605 39.6427 17.0878C38.9725 17.3995 38.2399 17.5554 37.4449 17.5554C36.4317 17.5554 35.5354 17.345 34.756 16.9241C33.9766 16.4877 33.3609 15.8564 32.9089 15.0302C32.4724 14.1885 32.2542 13.1909 32.2542 12.0374V4.43843H35.5276V11.5698C35.5276 12.5986 35.7848 13.3935 36.2992 13.9547C36.8136 14.5002 37.515 14.773 38.4035 14.773C39.3076 14.773 40.0168 14.5002 40.5312 13.9547C41.0456 13.3935 41.3028 12.5986 41.3028 11.5698V4.43843H44.5996Z" fill="#101828"/>
<path d="M51.1027 6.44923C51.5236 5.76338 52.0692 5.2256 52.7394 4.83591C53.4253 4.44622 54.2047 4.25138 55.0776 4.25138V7.68845H54.2125C53.1837 7.68845 52.4043 7.93006 51.8743 8.41328C51.3599 8.89649 51.1027 9.73822 51.1027 10.9385V17.3918H47.8293V4.43843H51.1027V6.44923Z" fill="#101828"/>
<path d="M62.3561 4.22799C63.3226 4.22799 64.1721 4.42284 64.9047 4.81253C65.6373 5.18664 66.2141 5.67765 66.6349 6.28556V4.43843H69.9317V17.4853C69.9317 18.6855 69.6901 19.7533 69.2069 20.6885C68.7237 21.6394 67.9989 22.3876 67.0324 22.9332C66.066 23.4943 64.8969 23.7749 63.5252 23.7749C61.6859 23.7749 60.1739 23.3462 58.9892 22.4889C57.8201 21.6316 57.1577 20.4625 57.0018 18.9817H60.2518C60.4233 19.574 60.7896 20.0417 61.3507 20.3846C61.9275 20.7431 62.6211 20.9224 63.4317 20.9224C64.3825 20.9224 65.1541 20.634 65.7465 20.0572C66.3388 19.4961 66.6349 18.6388 66.6349 17.4853V15.4745C66.2141 16.0824 65.6295 16.589 64.8813 16.9943C64.1487 17.3995 63.307 17.6022 62.3561 17.6022C61.265 17.6022 60.2674 17.3216 59.3633 16.7605C58.4592 16.1993 57.7422 15.4121 57.2122 14.3989C56.6978 13.3701 56.4407 12.1933 56.4407 10.8683C56.4407 9.55897 56.6978 8.39769 57.2122 7.38449C57.7422 6.37129 58.4515 5.59191 59.3399 5.04635C60.244 4.50078 61.2494 4.22799 62.3561 4.22799ZM66.6349 10.9151C66.6349 10.1201 66.4791 9.44206 66.1673 8.88091C65.8556 8.30416 65.4347 7.86771 64.9047 7.57154C64.3747 7.25979 63.8058 7.10391 63.1979 7.10391C62.59 7.10391 62.0288 7.252 61.5144 7.54816C61 7.84433 60.5792 8.28078 60.2518 8.85752C59.9401 9.41868 59.7842 10.0889 59.7842 10.8683C59.7842 11.6477 59.9401 12.3336 60.2518 12.9259C60.5792 13.5026 61 13.9469 61.5144 14.2586C62.0444 14.5704 62.6055 14.7263 63.1979 14.7263C63.8058 14.7263 64.3747 14.5782 64.9047 14.282C65.4347 13.9703 65.8556 13.5338 66.1673 12.9727C66.4791 12.3959 66.6349 11.7101 66.6349 10.9151Z" fill="#101828"/>
<path d="M76.4022 0.0894775V17.3918H73.1288V0.0894775H76.4022Z" fill="#101828"/>
<path d="M78.7946 10.8683C78.7946 9.55897 79.0518 8.39769 79.5661 7.38449C80.0961 6.37129 80.8054 5.59191 81.6939 5.04635C82.5979 4.50078 83.6033 4.22799 84.7101 4.22799C85.6765 4.22799 86.5182 4.42284 87.2353 4.81253C87.9679 5.20222 88.5524 5.69323 88.9889 6.28556V4.43843H92.2856V17.3918H88.9889V15.4979C88.568 16.1058 87.9835 16.6124 87.2353 17.0177C86.5026 17.4073 85.6531 17.6022 84.6867 17.6022C83.5956 17.6022 82.5979 17.3216 81.6939 16.7605C80.8054 16.1993 80.0961 15.4121 79.5661 14.3989C79.0518 13.3701 78.7946 12.1933 78.7946 10.8683ZM88.9889 10.9151C88.9889 10.1201 88.833 9.44206 88.5212 8.88091C88.2095 8.30416 87.7886 7.86771 87.2586 7.57154C86.7287 7.25979 86.1597 7.10391 85.5518 7.10391C84.9439 7.10391 84.3827 7.252 83.8683 7.54816C83.3539 7.84433 82.9331 8.28078 82.6057 8.85752C82.294 9.41868 82.1381 10.0889 82.1381 10.8683C82.1381 11.6477 82.294 12.3336 82.6057 12.9259C82.9331 13.5026 83.3539 13.9469 83.8683 14.2586C84.3983 14.5704 84.9595 14.7263 85.5518 14.7263C86.1597 14.7263 86.7287 14.5782 87.2586 14.282C87.7886 13.9703 88.2095 13.5338 88.5212 12.9727C88.833 12.3959 88.9889 11.7101 88.9889 10.9151Z" fill="#101828"/>
<path d="M100.44 17.6022C99.3796 17.6022 98.4287 17.4151 97.587 17.041C96.7453 16.6513 96.075 16.1292 95.5762 15.4745C95.093 14.8198 94.828 14.095 94.7812 13.3H98.078C98.1404 13.7988 98.382 14.2119 98.8028 14.5392C99.2393 14.8666 99.7771 15.0302 100.416 15.0302C101.04 15.0302 101.523 14.9055 101.866 14.6561C102.224 14.4067 102.404 14.0872 102.404 13.6975C102.404 13.2766 102.185 12.9649 101.749 12.7622C101.328 12.544 100.65 12.3102 99.7147 12.0608C98.7483 11.827 97.9533 11.5854 97.3298 11.336C96.7219 11.0866 96.1919 10.7047 95.7399 10.1903C95.3034 9.67587 95.0852 8.98222 95.0852 8.10932C95.0852 7.39229 95.2878 6.7376 95.6931 6.14527C96.114 5.55294 96.7063 5.08531 97.4701 4.74239C98.2495 4.39946 99.1614 4.22799 100.206 4.22799C101.749 4.22799 102.98 4.61769 103.9 5.39707C104.82 6.16086 105.326 7.19744 105.42 8.5068H102.287C102.24 7.99241 102.022 7.58713 101.632 7.29097C101.258 6.97921 100.751 6.82334 100.112 6.82334C99.5199 6.82334 99.06 6.93245 98.7327 7.15068C98.4209 7.3689 98.2651 7.67286 98.2651 8.06255C98.2651 8.49901 98.4833 8.83414 98.9197 9.06796C99.3562 9.28618 100.034 9.51221 100.954 9.74602C101.889 9.97983 102.661 10.2214 103.269 10.4708C103.877 10.7202 104.399 11.1099 104.835 11.6399C105.287 12.1543 105.521 12.8402 105.537 13.6975C105.537 14.4457 105.326 15.116 104.905 15.7083C104.5 16.3006 103.908 16.7682 103.128 17.1112C102.365 17.4385 101.468 17.6022 100.44 17.6022Z" fill="#101828"/>
<path d="M113.181 17.6022C112.121 17.6022 111.17 17.4151 110.328 17.041C109.486 16.6513 108.816 16.1292 108.317 15.4745C107.834 14.8198 107.569 14.095 107.522 13.3H110.819C110.881 13.7988 111.123 14.2119 111.544 14.5392C111.98 14.8666 112.518 15.0302 113.157 15.0302C113.781 15.0302 114.264 14.9055 114.607 14.6561C114.965 14.4067 115.145 14.0872 115.145 13.6975C115.145 13.2766 114.926 12.9649 114.49 12.7622C114.069 12.544 113.391 12.3102 112.456 12.0608C111.489 11.827 110.694 11.5854 110.071 11.336C109.463 11.0866 108.933 10.7047 108.481 10.1903C108.044 9.67587 107.826 8.98222 107.826 8.10932C107.826 7.39229 108.029 6.7376 108.434 6.14527C108.855 5.55294 109.447 5.08531 110.211 4.74239C110.991 4.39946 111.902 4.22799 112.947 4.22799C114.49 4.22799 115.721 4.61769 116.641 5.39707C117.561 6.16086 118.067 7.19744 118.161 8.5068H115.028C114.981 7.99241 114.763 7.58713 114.373 7.29097C113.999 6.97921 113.492 6.82334 112.853 6.82334C112.261 6.82334 111.801 6.93245 111.474 7.15068C111.162 7.3689 111.006 7.67286 111.006 8.06255C111.006 8.49901 111.224 8.83414 111.661 9.06796C112.097 9.28618 112.775 9.51221 113.695 9.74602C114.63 9.97983 115.402 10.2214 116.01 10.4708C116.618 10.7202 117.14 11.1099 117.576 11.6399C118.028 12.1543 118.262 12.8402 118.278 13.6975C118.278 14.4457 118.067 15.116 117.646 15.7083C117.241 16.3006 116.649 16.7682 115.869 17.1112C115.106 17.4385 114.209 17.6022 113.181 17.6022Z" fill="#101828"/>
</g>
</svg>
