<svg width="35" height="36" viewBox="0 0 35 36" fill="none" xmlns="http://www.w3.org/2000/svg">
<g id="Logomark">
<path id="Isometric square" d="M10.8678 16.7281C11.5098 14.3323 13.9724 11.8697 16.3682 11.2276L31.3045 7.22483C33.7003 6.58279 35.122 8.00447 34.48 10.4002L30.4772 25.3366C29.8351 27.7324 27.3725 30.195 24.9767 30.837L10.0404 34.8398C7.64461 35.4819 6.22293 34.0602 6.86497 31.6644L10.8678 16.7281Z" fill="#9E77ED"/>
<path id="Isometric square_2" d="M4.87947 10.74C5.52151 8.34426 7.98415 5.88162 10.3799 5.23958L25.3163 1.23679C27.7121 0.594751 29.1337 2.01643 28.4917 4.41221L24.4889 19.3485C23.8469 21.7443 21.3842 24.207 18.9885 24.849L4.0521 28.8518C1.65633 29.4938 0.234645 28.0721 0.876688 25.6764L4.87947 10.74Z" fill="#6941C6"/>
</g>
</svg>
