<svg width="109" height="23" viewBox="0 0 109 23" fill="none" xmlns="http://www.w3.org/2000/svg">
<g id="Logotype">
<path d="M19.4123 20.0707C18.8863 20.7205 18.2442 21.2156 17.486 21.556C16.7433 21.8964 15.9233 22.0666 15.0259 22.0666C13.8191 22.0666 12.7283 21.8036 11.7535 21.2775C10.7787 20.7669 9.66473 19.8541 8.41147 18.5389C6.94159 18.3532 5.62644 17.8813 4.46601 17.1232C3.32105 16.365 2.42366 15.3903 1.77382 14.1989C1.13945 12.9921 0.822266 11.6614 0.822266 10.207C0.822266 8.61337 1.20134 7.18218 1.95949 5.91344C2.7331 4.62923 3.79296 3.62353 5.13906 2.89633C6.50063 2.16913 8.02466 1.80552 9.71115 1.80552C11.3976 1.80552 12.9139 2.16913 14.26 2.89633C15.6061 3.62353 16.666 4.62923 17.4396 5.91344C18.2132 7.18218 18.6 8.61337 18.6 10.207C18.6 12.0947 18.0662 13.7502 16.9986 15.1737C15.9465 16.5971 14.5463 17.5874 12.7979 18.1444C13.1847 18.5466 13.556 18.8329 13.9119 19.0031C14.2832 19.1887 14.6778 19.2816 15.0955 19.2816C16.1012 19.2816 16.9832 18.8793 17.7413 18.0747L19.4123 20.0707ZM4.62847 10.207C4.62847 11.2127 4.84508 12.1101 5.27831 12.8992C5.72701 13.6883 6.33817 14.3072 7.11179 14.7559C7.88541 15.1891 8.75186 15.4057 9.71115 15.4057C10.6704 15.4057 11.5369 15.1891 12.3105 14.7559C13.0841 14.3072 13.6875 13.6883 14.1208 12.8992C14.5695 12.1101 14.7938 11.2127 14.7938 10.207C14.7938 9.20132 14.5695 8.30392 14.1208 7.51483C13.6875 6.72574 13.0841 6.11458 12.3105 5.68136C11.5369 5.23266 10.6704 5.00831 9.71115 5.00831C8.75186 5.00831 7.88541 5.23266 7.11179 5.68136C6.33817 6.11458 5.72701 6.72574 5.27831 7.51483C4.84508 8.30392 4.62847 9.20132 4.62847 10.207Z" fill="#101828"/>
<path d="M33.7494 5.84382V18.33H30.3145V16.8447C29.8349 17.3862 29.2624 17.804 28.5971 18.0979C27.9318 18.3764 27.2123 18.5157 26.4387 18.5157C24.7986 18.5157 23.499 18.0438 22.5397 17.1C21.5804 16.1562 21.1007 14.7559 21.1007 12.8992V5.84382H24.7213V12.3654C24.7213 14.3768 25.5645 15.3825 27.251 15.3825C28.1175 15.3825 28.8137 15.104 29.3398 14.547C29.8658 13.9746 30.1289 13.1313 30.1289 12.0173V5.84382H33.7494Z" fill="#101828"/>
<path d="M43.045 18.5157C41.7298 18.5157 40.5462 18.2449 39.4941 17.7034C38.4574 17.1464 37.6451 16.3805 37.0572 15.4057C36.4692 14.431 36.1753 13.3247 36.1753 12.0869C36.1753 10.8491 36.4692 9.74286 37.0572 8.7681C37.6451 7.79334 38.4574 7.03519 39.4941 6.49366C40.5462 5.93665 41.7298 5.65815 43.045 5.65815C44.3601 5.65815 45.536 5.93665 46.5727 6.49366C47.6093 7.03519 48.4216 7.79334 49.0096 8.7681C49.5975 9.74286 49.8915 10.8491 49.8915 12.0869C49.8915 13.3247 49.5975 14.431 49.0096 15.4057C48.4216 16.3805 47.6093 17.1464 46.5727 17.7034C45.536 18.2449 44.3601 18.5157 43.045 18.5157ZM43.045 15.545C43.9733 15.545 44.7315 15.2356 45.3194 14.6167C45.9228 13.9823 46.2246 13.139 46.2246 12.0869C46.2246 11.0348 45.9228 10.1993 45.3194 9.5804C44.7315 8.94603 43.9733 8.62884 43.045 8.62884C42.1166 8.62884 41.3508 8.94603 40.7473 9.5804C40.1439 10.1993 39.8422 11.0348 39.8422 12.0869C39.8422 13.139 40.1439 13.9823 40.7473 14.6167C41.3508 15.2356 42.1166 15.545 43.045 15.545Z" fill="#101828"/>
<path d="M60.3649 17.7266C60.0091 17.9896 59.5681 18.1908 59.042 18.33C58.5314 18.4538 57.9899 18.5157 57.4174 18.5157C55.9321 18.5157 54.7794 18.1366 53.9594 17.3785C53.1548 16.6203 52.7525 15.5063 52.7525 14.0364V8.90735H50.8262V6.12232H52.7525V3.082H56.373V6.12232H59.483V8.90735H56.373V13.99C56.373 14.5161 56.5046 14.9261 56.7676 15.2201C57.0461 15.4986 57.4329 15.6378 57.928 15.6378C58.5005 15.6378 58.9879 15.4831 59.3902 15.1737L60.3649 17.7266Z" fill="#101828"/>
<path d="M62.3973 5.84382H66.0178V18.33H62.3973V5.84382ZM64.2076 4.10317C63.5423 4.10317 63.0007 3.90977 62.583 3.52296C62.1652 3.13615 61.9563 2.6565 61.9563 2.08403C61.9563 1.51155 62.1652 1.0319 62.583 0.645096C63.0007 0.258285 63.5423 0.0648804 64.2076 0.0648804C64.8729 0.0648804 65.4144 0.250549 65.8322 0.621887C66.2499 0.993224 66.4588 1.4574 66.4588 2.0144C66.4588 2.61782 66.2499 3.12068 65.8322 3.52296C65.4144 3.90977 64.8729 4.10317 64.2076 4.10317Z" fill="#101828"/>
<path d="M81.6089 12.1333C81.6089 12.1798 81.5857 12.5047 81.5393 13.1081H72.0934C72.2636 13.8817 72.6659 14.4929 73.3002 14.9416C73.9346 15.3903 74.7237 15.6146 75.6675 15.6146C76.3174 15.6146 76.8898 15.5218 77.385 15.3361C77.8955 15.135 78.3674 14.8255 78.8007 14.4078L80.727 16.4966C79.5511 17.8426 77.8336 18.5157 75.5747 18.5157C74.1667 18.5157 72.9212 18.2449 71.8381 17.7034C70.755 17.1464 69.9195 16.3805 69.3316 15.4057C68.7436 14.431 68.4497 13.3247 68.4497 12.0869C68.4497 10.8646 68.7359 9.76607 69.3084 8.79131C69.8963 7.80107 70.6932 7.03519 71.6989 6.49366C72.72 5.93665 73.8572 5.65815 75.1105 5.65815C76.3328 5.65815 77.4391 5.92118 78.4293 6.44724C79.4196 6.9733 80.1932 7.73145 80.7502 8.72168C81.3227 9.69644 81.6089 10.8337 81.6089 12.1333ZM75.1337 8.39676C74.3137 8.39676 73.6252 8.62884 73.0682 9.09302C72.5112 9.55719 72.1708 10.1916 72.047 10.9961H78.1973C78.0735 10.207 77.7331 9.5804 77.1761 9.11623C76.6191 8.63658 75.9383 8.39676 75.1337 8.39676Z" fill="#101828"/>
<path d="M91.6085 5.65815C93.1558 5.65815 94.4013 6.12232 95.3451 7.05066C96.3044 7.97901 96.784 9.35605 96.784 11.1818V18.33H93.1635V11.7388C93.1635 10.7486 92.9469 10.0136 92.5137 9.53398C92.0804 9.03886 91.4538 8.79131 90.6338 8.79131C89.7209 8.79131 88.9937 9.07754 88.4522 9.65002C87.9106 10.207 87.6399 11.0425 87.6399 12.1565V18.33H84.0193V5.84382H87.4774V7.30596C87.9571 6.77989 88.5527 6.37761 89.2645 6.09911C89.9762 5.80514 90.7576 5.65815 91.6085 5.65815Z" fill="#101828"/>
<path d="M108.119 17.7266C107.763 17.9896 107.322 18.1908 106.796 18.33C106.286 18.4538 105.744 18.5157 105.172 18.5157C103.686 18.5157 102.534 18.1366 101.714 17.3785C100.909 16.6203 100.507 15.5063 100.507 14.0364V8.90735H98.5805V6.12232H100.507V3.082H104.127V6.12232H107.237V8.90735H104.127V13.99C104.127 14.5161 104.259 14.9261 104.522 15.2201C104.8 15.4986 105.187 15.6378 105.682 15.6378C106.255 15.6378 106.742 15.4831 107.145 15.1737L108.119 17.7266Z" fill="#101828"/>
</g>
</svg>
