<svg width="103" height="23" viewBox="0 0 103 23" fill="none" xmlns="http://www.w3.org/2000/svg">
<g id="Logotype">
<path d="M6.79596 18.3748C5.57026 18.3748 4.38238 18.2008 3.23234 17.8527C2.09743 17.5047 1.19706 17.0431 0.53125 16.4681L1.55267 14.1756C2.20335 14.6901 2.99779 15.1138 3.93598 15.4467C4.88931 15.7645 5.84264 15.9234 6.79596 15.9234C7.97627 15.9234 8.85393 15.7342 9.42896 15.3559C10.0191 14.9776 10.3142 14.4782 10.3142 13.8578C10.3142 13.4039 10.1477 13.0331 9.81483 12.7456C9.49705 12.443 9.08848 12.2084 8.58912 12.042C8.08976 11.8755 7.40881 11.6864 6.54628 11.4745C5.33571 11.187 4.35212 10.8995 3.59551 10.612C2.85404 10.3245 2.21092 9.87807 1.66616 9.27278C1.13654 8.65236 0.871723 7.8201 0.871723 6.77598C0.871723 5.89831 1.10627 5.10387 1.57537 4.39266C2.0596 3.66632 2.77837 3.0913 3.7317 2.6676C4.70016 2.2439 5.88047 2.03205 7.27262 2.03205C8.24108 2.03205 9.19441 2.1531 10.1326 2.39522C11.0708 2.63733 11.8804 2.98537 12.5613 3.43934L11.6307 5.73186C10.9346 5.32329 10.2083 5.01308 9.45166 4.80123C8.69505 4.58938 7.96114 4.48345 7.24993 4.48345C6.08475 4.48345 5.21465 4.68017 4.63963 5.07361C4.07974 5.46705 3.7998 5.9891 3.7998 6.63979C3.7998 7.09375 3.95868 7.46449 4.27646 7.752C4.60937 8.03951 5.0255 8.26649 5.52486 8.43295C6.02422 8.5994 6.70517 8.78855 7.5677 9.0004C8.74801 9.27278 9.71647 9.56029 10.4731 9.86294C11.2297 10.1504 11.8728 10.5968 12.4024 11.2021C12.9472 11.8074 13.2196 12.6246 13.2196 13.6535C13.2196 14.5312 12.9774 15.3256 12.4932 16.0369C12.0241 16.7481 11.3053 17.3155 10.3369 17.7392C9.36843 18.1629 8.18812 18.3748 6.79596 18.3748Z" fill="#101828"/>
<path d="M15.8731 6.02693H18.7104V18.1478H15.8731V6.02693ZM17.3031 4.02949C16.7886 4.02949 16.3574 3.8706 16.0093 3.55283C15.6613 3.21992 15.4873 2.81135 15.4873 2.32712C15.4873 1.84289 15.6613 1.44189 16.0093 1.12412C16.3574 0.791209 16.7886 0.624756 17.3031 0.624756C17.8176 0.624756 18.2489 0.783643 18.5969 1.10142C18.945 1.40406 19.119 1.78993 19.119 2.25903C19.119 2.75839 18.945 3.18209 18.5969 3.53013C18.264 3.86304 17.8327 4.02949 17.3031 4.02949Z" fill="#101828"/>
<path d="M26.1795 18.3067C25.196 18.3067 24.2351 18.1781 23.2969 17.9208C22.3587 17.6636 21.6096 17.3382 21.0497 16.9448L22.1393 14.7885C22.684 15.1516 23.3347 15.4467 24.0913 15.6737C24.863 15.8855 25.6196 15.9915 26.3611 15.9915C28.0559 15.9915 28.9033 15.5451 28.9033 14.6523C28.9033 14.2286 28.6839 13.9335 28.2451 13.767C27.8214 13.6006 27.1329 13.4417 26.1795 13.2904C25.1808 13.139 24.3637 12.965 23.7281 12.7683C23.1077 12.5716 22.563 12.2311 22.0939 11.7469C21.6399 11.2475 21.4129 10.559 21.4129 9.68135C21.4129 8.53131 21.8896 7.61581 22.8429 6.93486C23.8114 6.23878 25.1127 5.89075 26.747 5.89075C27.5793 5.89075 28.4115 5.9891 29.2438 6.18582C30.0761 6.36741 30.757 6.61709 31.2866 6.93486L30.1971 9.0912C29.1681 8.48591 28.0105 8.18327 26.7243 8.18327C25.892 8.18327 25.2565 8.31189 24.8176 8.56914C24.3939 8.81125 24.1821 9.13659 24.1821 9.54516C24.1821 9.99913 24.4091 10.3245 24.863 10.5212C25.3321 10.7028 26.0509 10.8768 27.0194 11.0432C27.9878 11.1946 28.7823 11.3686 29.4027 11.5653C30.0231 11.762 30.5527 12.0949 30.9916 12.564C31.4455 13.0331 31.6725 13.6989 31.6725 14.5615C31.6725 15.6964 31.1807 16.6043 30.1971 17.2853C29.2135 17.9662 27.8743 18.3067 26.1795 18.3067Z" fill="#101828"/>
<path d="M45.2434 6.02693L39.5688 19.1238C39.0392 20.4403 38.3961 21.3634 37.6395 21.893C36.8829 22.4378 35.9674 22.7101 34.893 22.7101C34.2877 22.7101 33.69 22.6118 33.0998 22.4151C32.5097 22.2183 32.0255 21.946 31.6472 21.5979L32.7821 19.5097C33.0544 19.7669 33.3722 19.9712 33.7354 20.1225C34.1137 20.2739 34.492 20.3495 34.8703 20.3495C35.3697 20.3495 35.7782 20.2209 36.096 19.9637C36.4289 19.7064 36.7316 19.2751 37.0039 18.6699L37.2082 18.1932L31.9195 6.02693H34.8703L38.6836 14.9927L42.5196 6.02693H45.2434Z" fill="#101828"/>
<path d="M53.7354 5.89075C54.9157 5.89075 55.9674 6.14799 56.8904 6.66249C57.8286 7.17698 58.5625 7.90332 59.0921 8.84152C59.6218 9.77971 59.8866 10.8617 59.8866 12.0874C59.8866 13.3131 59.6218 14.4026 59.0921 15.3559C58.5625 16.2941 57.8286 17.0204 56.8904 17.5349C55.9674 18.0494 54.9157 18.3067 53.7354 18.3067C52.1011 18.3067 50.8073 17.7619 49.854 16.6724V22.5512H47.0167V6.02693H49.7178V7.61581C50.1869 7.04079 50.7619 6.60952 51.4428 6.32201C52.1389 6.0345 52.9031 5.89075 53.7354 5.89075ZM53.4176 15.878C54.4617 15.878 55.3167 15.5299 55.9825 14.8338C56.6634 14.1378 57.0039 13.2223 57.0039 12.0874C57.0039 10.9525 56.6634 10.037 55.9825 9.34088C55.3167 8.6448 54.4617 8.29676 53.4176 8.29676C52.7366 8.29676 52.1238 8.45565 51.579 8.77342C51.0343 9.07607 50.603 9.5149 50.2852 10.0899C49.9675 10.6649 49.8086 11.3308 49.8086 12.0874C49.8086 12.844 49.9675 13.5098 50.2852 14.0848C50.603 14.6598 51.0343 15.1062 51.579 15.424C52.1238 15.7266 52.7366 15.878 53.4176 15.878Z" fill="#101828"/>
<path d="M69.455 5.89075C70.9833 5.89075 72.209 6.33714 73.1321 7.22994C74.0551 8.12274 74.5167 9.4468 74.5167 11.2021V18.1478H71.6794V11.5653C71.6794 10.5061 71.4297 9.71161 70.9303 9.18199C70.431 8.63723 69.7198 8.36485 68.7967 8.36485C67.7526 8.36485 66.9279 8.68263 66.3226 9.31818C65.7173 9.9386 65.4147 10.839 65.4147 12.0193V18.1478H62.5774V1.3057H65.4147V7.43423C65.8838 6.93486 66.4588 6.55656 67.1397 6.29931C67.8358 6.02694 68.6076 5.89075 69.455 5.89075Z" fill="#101828"/>
<path d="M89.8509 6.02693V18.1478H87.1498V16.6043C86.6959 17.1491 86.1284 17.5728 85.4475 17.8754C84.7665 18.1629 84.0326 18.3067 83.2457 18.3067C81.6266 18.3067 80.3479 17.8603 79.4097 16.9675C78.4867 16.0596 78.0251 14.7204 78.0251 12.9499V6.02693H80.8624V12.564C80.8624 13.6535 81.1045 14.4707 81.5888 15.0154C82.0881 15.5451 82.7918 15.8099 83.6997 15.8099C84.7135 15.8099 85.5155 15.4997 86.1057 14.8792C86.711 14.2437 87.0136 13.3358 87.0136 12.1555V6.02693H89.8509Z" fill="#101828"/>
<path d="M97.311 18.3067C96.3274 18.3067 95.3665 18.1781 94.4283 17.9208C93.4901 17.6636 92.7411 17.3382 92.1812 16.9448L93.2707 14.7885C93.8155 15.1516 94.4662 15.4467 95.2228 15.6737C95.9945 15.8855 96.7511 15.9915 97.4926 15.9915C99.1874 15.9915 100.035 15.5451 100.035 14.6523C100.035 14.2286 99.8154 13.9335 99.3765 13.767C98.9528 13.6006 98.2643 13.4417 97.311 13.2904C96.3123 13.139 95.4951 12.965 94.8596 12.7683C94.2392 12.5716 93.6944 12.2311 93.2253 11.7469C92.7714 11.2475 92.5444 10.559 92.5444 9.68135C92.5444 8.53131 93.021 7.61581 93.9744 6.93486C94.9428 6.23878 96.2442 5.89075 97.8785 5.89075C98.7107 5.89075 99.543 5.9891 100.375 6.18582C101.208 6.36741 101.888 6.61709 102.418 6.93486L101.329 9.0912C100.3 8.48591 99.142 8.18327 97.8558 8.18327C97.0235 8.18327 96.3879 8.31189 95.9491 8.56914C95.5254 8.81125 95.3136 9.13659 95.3136 9.54516C95.3136 9.99913 95.5405 10.3245 95.9945 10.5212C96.4636 10.7028 97.1824 10.8768 98.1508 11.0432C99.1193 11.1946 99.9137 11.3686 100.534 11.5653C101.155 11.762 101.684 12.0949 102.123 12.564C102.577 13.0331 102.804 13.6989 102.804 14.5615C102.804 15.6964 102.312 16.6043 101.329 17.2853C100.345 17.9662 99.0058 18.3067 97.311 18.3067Z" fill="#101828"/>
</g>
</svg>
