<svg width="105" height="18" viewBox="0 0 105 18" fill="none" xmlns="http://www.w3.org/2000/svg">
<g id="Logotype">
<path d="M14.7487 13.0877C14.2866 14.5818 13.478 15.6984 12.3228 16.4378C11.1676 17.1617 9.81989 17.5236 8.27963 17.5236C6.77018 17.5236 5.46097 17.2079 4.35198 16.5764C3.2584 15.9449 2.41126 15.0438 1.81056 13.8732C1.22527 12.7026 0.932617 11.301 0.932617 9.66835C0.932617 8.03568 1.23297 6.63405 1.83367 5.46346C2.43437 4.29286 3.28151 3.39182 4.37509 2.76031C5.46867 2.12881 6.75478 1.81306 8.23342 1.81306C9.78908 1.81306 11.1214 2.14421 12.2304 2.80652C13.3548 3.45343 14.1249 4.43919 14.5408 5.76381L11.6528 6.98831C11.3909 6.06416 10.9905 5.40955 10.4514 5.02449C9.9123 4.62402 9.21919 4.42379 8.37205 4.42379C7.10904 4.42379 6.10017 4.87816 5.34545 5.78691C4.60612 6.68026 4.23646 7.97407 4.23646 9.66835C4.23646 11.3472 4.59072 12.641 5.29924 13.5498C6.00776 14.4585 7.03203 14.9129 8.37205 14.9129C9.20378 14.9129 9.92 14.6896 10.5207 14.2429C11.1368 13.7962 11.5681 13.1185 11.8145 12.2098L14.7487 13.0877Z" fill="#101828"/>
<path d="M18.7368 4.07723C17.4276 4.07723 16.773 3.51504 16.773 2.39065C16.773 1.25086 17.4276 0.680969 18.7368 0.680969C20.046 0.680969 20.7006 1.25086 20.7006 2.39065C20.7006 3.51504 20.046 4.07723 18.7368 4.07723ZM20.3079 5.7407V17.2926H17.1427V5.7407H20.3079Z" fill="#101828"/>
<path d="M23.6632 17.2926V5.7407H26.4125L26.6205 8.00488C26.9131 7.21935 27.3521 6.61095 27.9374 6.17967C28.5381 5.733 29.2928 5.50966 30.2015 5.50966C30.7406 5.50966 31.1565 5.59438 31.4492 5.76381L31.0795 8.42074C30.9255 8.37454 30.7329 8.33603 30.5019 8.30522C30.2863 8.25902 30.0013 8.23591 29.6471 8.23591C29.1696 8.23591 28.7152 8.35143 28.2839 8.58247C27.8681 8.79811 27.5215 9.13696 27.2443 9.59904C26.967 10.0457 26.8284 10.6156 26.8284 11.3087V17.2926H23.6632Z" fill="#101828"/>
<path d="M38.429 5.50966C39.9693 5.50966 41.163 5.84082 42.0101 6.50313C42.8727 7.16544 43.4426 7.96637 43.7198 8.90592L40.7625 9.9687C40.4545 8.56707 39.692 7.86625 38.4752 7.86625C37.5973 7.86625 36.9119 8.1743 36.419 8.7904C35.9415 9.40651 35.7028 10.323 35.7028 11.5398C35.7028 12.772 35.9492 13.6884 36.4421 14.2891C36.9504 14.8744 37.6358 15.1671 38.4983 15.1671C39.8384 15.1671 40.6393 14.4816 40.9011 13.1108L43.766 14.035C43.5042 15.0669 42.9189 15.9064 42.0101 16.5533C41.1168 17.2002 39.9539 17.5236 38.5214 17.5236C37.32 17.5236 36.265 17.2849 35.3562 16.8074C34.4629 16.3299 33.7698 15.6445 33.2769 14.7512C32.784 13.8578 32.5376 12.7797 32.5376 11.5167C32.5376 10.2536 32.784 9.17547 33.2769 8.28212C33.7852 7.38877 34.4783 6.70336 35.3562 6.22588C36.2496 5.7484 37.2738 5.50966 38.429 5.50966Z" fill="#101828"/>
<path d="M51.4932 5.50966C52.6483 5.50966 53.6726 5.7484 54.566 6.22588C55.4593 6.70336 56.1524 7.38877 56.6453 8.28212C57.1536 9.17547 57.4077 10.2536 57.4077 11.5167C57.4077 12.7797 57.1536 13.8578 56.6453 14.7512C56.1524 15.6445 55.4593 16.3299 54.566 16.8074C53.6726 17.2849 52.6483 17.5236 51.4932 17.5236C50.3226 17.5236 49.2906 17.2849 48.3972 16.8074C47.5193 16.3299 46.8262 15.6445 46.3179 14.7512C45.825 13.8578 45.5786 12.7797 45.5786 11.5167C45.5786 10.2536 45.825 9.17547 46.3179 8.28212C46.8262 7.38877 47.5193 6.70336 48.3972 6.22588C49.2906 5.7484 50.3226 5.50966 51.4932 5.50966ZM51.4932 7.86625C50.6306 7.86625 49.9529 8.1743 49.46 8.7904C48.9825 9.3911 48.7438 10.2999 48.7438 11.5167C48.7438 12.7335 48.9825 13.6499 49.46 14.266C49.9529 14.8667 50.6306 15.1671 51.4932 15.1671C52.3403 15.1671 53.0026 14.8667 53.4801 14.266C53.973 13.6499 54.2194 12.7335 54.2194 11.5167C54.2194 10.2999 53.973 9.3911 53.4801 8.7904C53.0026 8.1743 52.3403 7.86625 51.4932 7.86625Z" fill="#101828"/>
<path d="M65.3239 5.50966C66.479 5.50966 67.5033 5.7484 68.3967 6.22588C69.29 6.70336 69.9831 7.38877 70.476 8.28212C70.9843 9.17547 71.2384 10.2536 71.2384 11.5167C71.2384 12.7797 70.9843 13.8578 70.476 14.7512C69.9831 15.6445 69.29 16.3299 68.3967 16.8074C67.5033 17.2849 66.479 17.5236 65.3239 17.5236C64.1533 17.5236 63.1213 17.2849 62.228 16.8074C61.35 16.3299 60.6569 15.6445 60.1486 14.7512C59.6557 13.8578 59.4093 12.7797 59.4093 11.5167C59.4093 10.2536 59.6557 9.17547 60.1486 8.28212C60.6569 7.38877 61.35 6.70336 62.228 6.22588C63.1213 5.7484 64.1533 5.50966 65.3239 5.50966ZM65.3239 7.86625C64.4613 7.86625 63.7836 8.1743 63.2907 8.7904C62.8132 9.3911 62.5745 10.2999 62.5745 11.5167C62.5745 12.7335 62.8132 13.6499 63.2907 14.266C63.7836 14.8667 64.4613 15.1671 65.3239 15.1671C66.171 15.1671 66.8333 14.8667 67.3108 14.266C67.8037 13.6499 68.0501 12.7335 68.0501 11.5167C68.0501 10.2999 67.8037 9.3911 67.3108 8.7904C66.8333 8.1743 66.171 7.86625 65.3239 7.86625Z" fill="#101828"/>
<path d="M77.0059 0.680969V13.7346C77.0059 14.2737 77.0983 14.6511 77.2832 14.8667C77.468 15.0823 77.776 15.1902 78.2073 15.1902C78.4691 15.1902 78.6848 15.1748 78.8542 15.144C79.0236 15.1131 79.2393 15.0515 79.5011 14.9591L79.2239 17.0385C78.962 17.1925 78.6309 17.308 78.2304 17.385C77.8453 17.4774 77.4603 17.5236 77.0752 17.5236C75.9508 17.5236 75.1268 17.2541 74.6031 16.715C74.0948 16.1605 73.8407 15.2826 73.8407 14.0812V0.680969H77.0059Z" fill="#101828"/>
<path d="M86.6249 17.5236C84.8074 17.5236 83.3518 17 82.2582 15.9526C81.1647 14.8898 80.6179 13.4112 80.6179 11.5167C80.6179 10.2536 80.8643 9.17547 81.3572 8.28212C81.8501 7.38877 82.5355 6.70336 83.4134 6.22588C84.3068 5.7484 85.3233 5.50966 86.4631 5.50966C87.6337 5.50966 88.6272 5.7484 89.4435 6.22588C90.2599 6.68796 90.8837 7.32716 91.3149 8.1435C91.7462 8.94443 91.9618 9.86088 91.9618 10.8929C91.9618 11.2009 91.9541 11.4936 91.9387 11.7708C91.9233 12.048 91.9002 12.2945 91.8694 12.5101H83.7138C83.837 13.4035 84.1451 14.0735 84.6379 14.5201C85.1462 14.9514 85.8008 15.1671 86.6018 15.1671C87.2795 15.1671 87.8263 15.0361 88.2421 14.7743C88.658 14.5124 88.9815 14.1505 89.2125 13.6884L91.7308 14.6588C91.3611 15.5675 90.7142 16.276 89.7901 16.7843C88.8659 17.2772 87.8109 17.5236 86.6249 17.5236ZM86.44 7.84315C84.946 7.84315 84.0449 8.66718 83.7369 10.3153H88.9352C88.8428 9.51432 88.581 8.90592 88.1497 8.49006C87.7338 8.05878 87.1639 7.84315 86.44 7.84315Z" fill="#101828"/>
<path d="M99.265 17.5236C98.0944 17.5236 97.0239 17.3157 96.0536 16.8998C95.0986 16.484 94.3208 15.8987 93.7201 15.144L95.5453 13.2956C95.9149 13.8501 96.4078 14.3045 97.0239 14.6588C97.64 15.013 98.3716 15.1902 99.2188 15.1902C99.8195 15.1902 100.297 15.1054 100.651 14.936C101.021 14.7512 101.206 14.4662 101.206 14.0812C101.206 13.8347 101.121 13.6268 100.952 13.4574C100.782 13.2725 100.443 13.1262 99.935 13.0184L97.9019 12.6025C96.5618 12.3253 95.6069 11.9094 95.037 11.3549C94.4825 10.785 94.2053 10.0534 94.2053 9.16007C94.2053 8.52856 94.3901 7.93556 94.7598 7.38107C95.1448 6.82658 95.7147 6.37991 96.4694 6.04105C97.2242 5.68679 98.1637 5.50966 99.2881 5.50966C101.629 5.50966 103.308 6.22588 104.325 7.65832L102.43 9.50662C102.091 8.96753 101.645 8.55937 101.09 8.28212C100.551 7.98947 99.9812 7.84315 99.3805 7.84315C98.0251 7.84315 97.3474 8.22051 97.3474 8.97524C97.3474 9.22168 97.4552 9.43731 97.6708 9.62214C97.8865 9.79157 98.2792 9.93789 98.8491 10.0611L101.206 10.5463C102.346 10.7773 103.162 11.1701 103.655 11.7246C104.148 12.2637 104.394 12.9183 104.394 13.6884C104.394 14.7974 103.947 15.7138 103.054 16.4378C102.176 17.1617 100.913 17.5236 99.265 17.5236Z" fill="#101828"/>
</g>
</svg>
