<svg width="37" height="38" viewBox="0 0 37 38" fill="none" xmlns="http://www.w3.org/2000/svg">
<g id="Logomark">
<path id="Ring" fill-rule="evenodd" clip-rule="evenodd" d="M18.7353 29.3746C24.4422 29.3746 29.0686 24.7482 29.0686 19.0413C29.0686 13.3343 24.4422 8.70793 18.7353 8.70793C13.0283 8.70793 8.40196 13.3343 8.40196 19.0413C8.40196 24.7482 13.0283 29.3746 18.7353 29.3746ZM18.7353 37.2766C28.8064 37.2766 36.9706 29.1123 36.9706 19.0413C36.9706 8.97019 28.8064 0.805969 18.7353 0.805969C8.66422 0.805969 0.5 8.97019 0.5 19.0413C0.5 29.1123 8.66422 37.2766 18.7353 37.2766Z" fill="#6938EF"/>
<path id="Descender" d="M18.9443 19.4405C20.8434 17.5415 23.9223 17.5415 25.8213 19.4405L35.2771 28.8963C37.1761 30.7953 37.1761 33.8742 35.2771 35.7733C33.3781 37.6723 30.2992 37.6723 28.4001 35.7733L18.9443 26.3175C17.0453 24.4184 17.0453 21.3395 18.9443 19.4405Z" fill="#F670C7"/>
<path id="Intersect" d="M21.5986 28.9726L27.6041 34.9781C30.4846 33.3716 32.8845 31.0068 34.5336 28.1537L28.5774 22.1974C27.5311 25.4627 24.9051 28.0209 21.5986 28.9726Z" fill="#6519BA"/>
</g>
</svg>
